<svg viewBox="0 0 1400 1000" xmlns="http://www.w3.org/2000/svg">
  <defs>
    <linearGradient id="bgGrad" x1="0%" y1="0%" x2="100%" y2="100%">
      <stop offset="0%" style="stop-color:#f8fafc;stop-opacity:1" />
      <stop offset="100%" style="stop-color:#e2e8f0;stop-opacity:1" />
    </linearGradient>
    
    <filter id="shadow">
      <feDropShadow dx="0" dy="2" stdDeviation="4" flood-opacity="0.2"/>
    </filter>
    
    <filter id="shadowStrong">
      <feDropShadow dx="0" dy="3" stdDeviation="6" flood-opacity="0.3"/>
    </filter>
  </defs>
  
  <!-- Background -->
  <rect width="1400" height="1000" fill="url(#bgGrad)"/>
  
  <!-- Title -->
  <text x="700" y="50" font-family="Arial, sans-serif" font-size="32" font-weight="bold" fill="#1a202c" text-anchor="middle">
    Cardinalidade em Banco de Dados - Sistema Biblioteca
  </text>
  
  <!-- ========== 1:N (Um para Muitos) - LIVRO → EXEMPLAR ========== -->
  <g>
    <!-- Label -->
    <rect x="50" y="100" width="380" height="50" rx="10" fill="#ef4444" filter="url(#shadowStrong)"/>
    <text x="240" y="135" font-family="Arial, sans-serif" font-size="22" font-weight="bold" fill="white" text-anchor="middle">
      1:N (um para muitos)
    </text>
    
    <!-- Container -->
    <rect x="50" y="165" width="380" height="280" rx="12" fill="white" stroke="#e5e7eb" stroke-width="2" filter="url(#shadow)"/>
    
    <!-- Left side - Livro (1) -->
    <g transform="translate(80, 250)">
      <!-- Book icon - closed book with cover -->
      <rect x="0" y="0" width="70" height="90" rx="4" fill="#dc2626"/>
      <rect x="5" y="5" width="60" height="80" rx="2" fill="#fee2e2"/>
      <line x1="35" y1="15" x2="35" y2="75" stroke="#dc2626" stroke-width="2"/>
      <rect x="10" y="25" width="15" height="3" fill="#dc2626" opacity="0.5"/>
      <rect x="10" y="35" width="20" height="3" fill="#dc2626" opacity="0.5"/>
      <rect x="10" y="45" width="18" height="3" fill="#dc2626" opacity="0.5"/>
      <rect x="10" y="55" width="22" height="3" fill="#dc2626" opacity="0.5"/>
    </g>
    <text x="115" y="370" font-family="Arial, sans-serif" font-size="22" font-weight="700" fill="#991b1b" text-anchor="middle">livro 1</text>
    
    <!-- Right side - Exemplares (N) -->
    <g transform="translate(280, 200)">
      <!-- Physical copy icon 1 -->
      <rect x="0" y="0" width="45" height="60" rx="3" fill="#f59e0b"/>
      <rect x="5" y="5" width="35" height="50" fill="#fef3c7"/>
      <circle cx="22.5" cy="30" r="12" fill="#f59e0b" opacity="0.3"/>
      <text x="22.5" y="36" font-family="Arial, sans-serif" font-size="16" font-weight="bold" fill="#92400e" text-anchor="middle">1</text>
    </g>
    <text x="320" y="230" font-family="Arial, sans-serif" font-size="20" font-weight="700" fill="#92400e" text-anchor="start">exemplar 1</text>
    
    <g transform="translate(280, 280)">
      <!-- Physical copy icon 2 -->
      <rect x="0" y="0" width="45" height="60" rx="3" fill="#f59e0b"/>
      <rect x="5" y="5" width="35" height="50" fill="#fef3c7"/>
      <circle cx="22.5" cy="30" r="12" fill="#f59e0b" opacity="0.3"/>
      <text x="22.5" y="36" font-family="Arial, sans-serif" font-size="16" font-weight="bold" fill="#92400e" text-anchor="middle">2</text>
    </g>
    <text x="320" y="310" font-family="Arial, sans-serif" font-size="20" font-weight="700" fill="#92400e" text-anchor="start">exemplar 2</text>
    
    <g transform="translate(280, 360)">
      <!-- Physical copy icon 3 -->
      <rect x="0" y="0" width="45" height="60" rx="3" fill="#f59e0b"/>
      <rect x="5" y="5" width="35" height="50" fill="#fef3c7"/>
      <circle cx="22.5" cy="30" r="12" fill="#f59e0b" opacity="0.3"/>
      <text x="22.5" y="36" font-family="Arial, sans-serif" font-size="16" font-weight="bold" fill="#92400e" text-anchor="middle">3</text>
    </g>
    <text x="320" y="390" font-family="Arial, sans-serif" font-size="20" font-weight="700" fill="#92400e" text-anchor="start">exemplar 3</text>
    
    <!-- Connections -->
    <path d="M 150 295 L 280 230" stroke="#ef4444" stroke-width="4" fill="none"/>
    <path d="M 150 295 L 280 310" stroke="#ef4444" stroke-width="4" fill="none"/>
    <path d="M 150 295 L 280 390" stroke="#ef4444" stroke-width="4" fill="none"/>
  </g>
  
  <!-- ========== 1:1 (Um para Um) - RESERVA ↔ EXEMPLAR ========== -->
  <g>
    <!-- Label -->
    <rect x="510" y="100" width="380" height="50" rx="10" fill="#10b981" filter="url(#shadowStrong)"/>
    <text x="700" y="135" font-family="Arial, sans-serif" font-size="22" font-weight="bold" fill="white" text-anchor="middle">
      1:1 (um para um)
    </text>
    
    <!-- Container -->
    <rect x="510" y="165" width="380" height="280" rx="12" fill="white" stroke="#e5e7eb" stroke-width="2" filter="url(#shadow)"/>
    
    <!-- Left side - Reserva (1) -->
    <g transform="translate(540, 250)">
      <!-- Calendar/reservation icon -->
      <rect x="5" y="10" width="70" height="80" rx="5" fill="#059669"/>
      <rect x="10" y="25" width="60" height="60" fill="#d1fae5"/>
      <!-- Calendar top bars -->
      <rect x="15" y="5" width="8" height="15" rx="3" fill="#047857"/>
      <rect x="47" y="5" width="8" height="15" rx="3" fill="#047857"/>
      <!-- Checkmark -->
      <path d="M 25 50 L 35 60 L 55 35" stroke="#059669" stroke-width="4" fill="none" stroke-linecap="round" stroke-linejoin="round"/>
      <!-- "ATIVA" indicator -->
      <rect x="15" y="70" width="40" height="8" rx="2" fill="#059669"/>
    </g>
    <text x="575" y="370" font-family="Arial, sans-serif" font-size="20" font-weight="700" fill="#065f46" text-anchor="middle">reserva 1</text>
    
    <!-- Right side - Exemplar (1) -->
    <g transform="translate(735, 260)">
      <!-- Physical copy icon -->
      <rect x="0" y="0" width="45" height="60" rx="3" fill="#f59e0b"/>
      <rect x="5" y="5" width="35" height="50" fill="#fef3c7"/>
      <circle cx="22.5" cy="30" r="12" fill="#f59e0b" opacity="0.3"/>
      <text x="22.5" y="36" font-family="Arial, sans-serif" font-size="16" font-weight="bold" fill="#92400e" text-anchor="middle">5</text>
    </g>
    <text x="757.5" y="350" font-family="Arial, sans-serif" font-size="20" font-weight="700" fill="#92400e" text-anchor="middle">exemplar 5</text>
    
    <!-- Bidirectional connection -->
    <path d="M 620 290 L 735 290" stroke="#10b981" stroke-width="4" fill="none"/>
    <polygon points="735,290 728,286 728,294" fill="#10b981"/>
    <polygon points="620,290 627,286 627,294" fill="#10b981"/>
  </g>
  
  <!-- ========== M:N (Muitos para Muitos) - AUTOR ↔ LIVRO ========== -->
  <g>
    <!-- Label -->
    <rect x="970" y="100" width="380" height="50" rx="10" fill="#3b82f6" filter="url(#shadowStrong)"/>
    <text x="1160" y="135" font-family="Arial, sans-serif" font-size="22" font-weight="bold" fill="white" text-anchor="middle">
      M:N (muitos para muitos)
    </text>
    
    <!-- Container -->
    <rect x="970" y="165" width="380" height="280" rx="12" fill="white" stroke="#e5e7eb" stroke-width="2" filter="url(#shadow)"/>
    
    <!-- Left side - Autores (M) -->
    <g transform="translate(1000, 200)">
      <!-- Author icon 1 -->
      <circle cx="35" cy="25" r="18" fill="#2563eb"/>
      <ellipse cx="35" cy="50" rx="28" ry="18" fill="#2563eb"/>
      <circle cx="35" cy="22" r="10" fill="#dbeafe"/>
      <!-- Pen icon -->
      <rect x="50" y="35" width="3" height="15" fill="#1e40af" transform="rotate(45 51.5 42.5)"/>
    </g>
    <text x="980" y="225" font-family="Arial, sans-serif" font-size="20" font-weight="700" fill="#2563eb" text-anchor="end">autor 1</text>
    
    <g transform="translate(1000, 280)">
      <!-- Author icon 2 -->
      <circle cx="35" cy="25" r="18" fill="#2563eb"/>
      <ellipse cx="35" cy="50" rx="28" ry="18" fill="#2563eb"/>
      <circle cx="35" cy="22" r="10" fill="#dbeafe"/>
      <rect x="50" y="35" width="3" height="15" fill="#1e40af" transform="rotate(45 51.5 42.5)"/>
    </g>
    <text x="980" y="305" font-family="Arial, sans-serif" font-size="20" font-weight="700" fill="#2563eb" text-anchor="end">autor 2</text>
    
    <g transform="translate(1000, 360)">
      <!-- Author icon 3 -->
      <circle cx="35" cy="25" r="18" fill="#2563eb"/>
      <ellipse cx="35" cy="50" rx="28" ry="18" fill="#2563eb"/>
      <circle cx="35" cy="22" r="10" fill="#dbeafe"/>
      <rect x="50" y="35" width="3" height="15" fill="#1e40af" transform="rotate(45 51.5 42.5)"/>
    </g>
    <text x="980" y="385" font-family="Arial, sans-serif" font-size="20" font-weight="700" fill="#2563eb" text-anchor="end">autor 3</text>
    
    <!-- Right side - Livros (N) -->
    <g transform="translate(1230, 230)">
      <!-- Book icon A (igual ao 1:N) -->
      <rect x="0" y="0" width="70" height="90" rx="4" fill="#dc2626"/>
      <rect x="5" y="5" width="60" height="80" rx="2" fill="#fee2e2"/>
      <line x1="35" y1="15" x2="35" y2="75" stroke="#dc2626" stroke-width="2"/>
      <rect x="10" y="25" width="15" height="3" fill="#dc2626" opacity="0.5"/>
      <rect x="10" y="35" width="20" height="3" fill="#dc2626" opacity="0.5"/>
      <rect x="10" y="45" width="18" height="3" fill="#dc2626" opacity="0.5"/>
      <rect x="10" y="55" width="22" height="3" fill="#dc2626" opacity="0.5"/>
    </g>
    <text x="1250" y="275" font-family="Arial, sans-serif" font-size="20" font-weight="700" fill="#991b1b" text-anchor="start">livro A</text>
    
    <g transform="translate(1230, 340)">
      <!-- Book icon B (igual ao 1:N) -->
      <rect x="0" y="0" width="70" height="90" rx="4" fill="#dc2626"/>
      <rect x="5" y="5" width="60" height="80" rx="2" fill="#fee2e2"/>
      <line x1="35" y1="15" x2="35" y2="75" stroke="#dc2626" stroke-width="2"/>
      <rect x="10" y="25" width="15" height="3" fill="#dc2626" opacity="0.5"/>
      <rect x="10" y="35" width="20" height="3" fill="#dc2626" opacity="0.5"/>
      <rect x="10" y="45" width="18" height="3" fill="#dc2626" opacity="0.5"/>
      <rect x="10" y="55" width="22" height="3" fill="#dc2626" opacity="0.5"/>
    </g>
    <text x="1250" y="385" font-family="Arial, sans-serif" font-size="20" font-weight="700" fill="#991b1b" text-anchor="start">livro B</text>
    
    <!-- Cross connections -->
    <path d="M 1070 225 L 1230 270" stroke="#3b82f6" stroke-width="3" fill="none"/>
    <path d="M 1070 225 L 1230 380" stroke="#3b82f6" stroke-width="3" fill="none"/>
    <path d="M 1070 305 L 1230 270" stroke="#3b82f6" stroke-width="3" fill="none"/>
    <path d="M 1070 305 L 1230 380" stroke="#3b82f6" stroke-width="3" fill="none"/>
    <path d="M 1070 385 L 1230 380" stroke="#3b82f6" stroke-width="3" fill="none"/>
  </g>
  
  <!-- ========== M:N Resolvido - ALUNO ↔ EMPRESTIMO ↔ EXEMPLAR ========== -->
  <g>
    <!-- Label -->
    <rect x="50" y="500" width="1300" height="50" rx="10" fill="#8b5cf6" filter="url(#shadowStrong)"/>
    <text x="700" y="535" font-family="Arial, sans-serif" font-size="22" font-weight="bold" fill="white" text-anchor="middle">
      M:N resolvido (entidade associativa)
    </text>
    
    <!-- Container -->
    <rect x="50" y="565" width="1300" height="380" rx="12" fill="white" stroke="#e5e7eb" stroke-width="2" filter="url(#shadow)"/>
    
    <!-- Left side - Alunos (M) -->
    <g transform="translate(120, 650)">
      <!-- Student icon 1 -->
      <circle cx="40" cy="30" r="22" fill="#7c3aed"/>
      <ellipse cx="40" cy="65" rx="35" ry="22" fill="#7c3aed"/>
      <circle cx="40" cy="26" r="12" fill="#ede9fe"/>
      <!-- Book in hand -->
      <rect x="55" y="55" width="15" height="20" rx="2" fill="#a855f7"/>
    </g>
    <text x="160" y="760" font-family="Arial, sans-serif" font-size="15" font-weight="600" fill="#5b21b6" text-anchor="middle">aluno 1</text>
    
    <g transform="translate(120, 800)">
      <!-- Student icon 2 -->
      <circle cx="40" cy="30" r="22" fill="#7c3aed"/>
      <ellipse cx="40" cy="65" rx="35" ry="22" fill="#7c3aed"/>
      <circle cx="40" cy="26" r="12" fill="#ede9fe"/>
      <rect x="55" y="55" width="15" height="20" rx="2" fill="#a855f7"/>
    </g>
    <text x="160" y="910" font-family="Arial, sans-serif" font-size="15" font-weight="600" fill="#5b21b6" text-anchor="middle">aluno 2</text>
    
    <!-- Center - Emprestimos (Entity) -->
    <g transform="translate(500, 640)">
      <!-- Loan document icon 1 -->
      <rect x="0" y="0" width="90" height="110" rx="6" fill="#a855f7"/>
      <rect x="8" y="8" width="74" height="94" rx="3" fill="#f3e8ff"/>
      <!-- Document lines -->
      <line x1="18" y1="25" x2="64" y2="25" stroke="#a855f7" stroke-width="2"/>
      <line x1="18" y1="38" x2="64" y2="38" stroke="#a855f7" stroke-width="2"/>
      <line x1="18" y1="51" x2="50" y2="51" stroke="#a855f7" stroke-width="2"/>
      <!-- Checkmark -->
      <circle cx="45" cy="75" r="15" fill="#a855f7"/>
      <path d="M 37 75 L 42 80 L 53 69" stroke="#f3e8ff" stroke-width="3" fill="none" stroke-linecap="round"/>
    </g>
    <text x="545" y="765" font-family="Arial, sans-serif" font-size="18" font-weight="700" fill="#6b21a8" text-anchor="middle">emprestimo 1</text>
    
    <g transform="translate(500, 810)">
      <!-- Loan document icon 2 -->
      <rect x="0" y="0" width="90" height="110" rx="6" fill="#a855f7"/>
      <rect x="8" y="8" width="74" height="94" rx="3" fill="#f3e8ff"/>
      <line x1="18" y1="25" x2="64" y2="25" stroke="#a855f7" stroke-width="2"/>
      <line x1="18" y1="38" x2="64" y2="38" stroke="#a855f7" stroke-width="2"/>
      <line x1="18" y1="51" x2="50" y2="51" stroke="#a855f7" stroke-width="2"/>
      <circle cx="45" cy="75" r="15" fill="#a855f7"/>
      <path d="M 37 75 L 42 80 L 53 69" stroke="#f3e8ff" stroke-width="3" fill="none" stroke-linecap="round"/>
    </g>
    <text x="545" y="935" font-family="Arial, sans-serif" font-size="18" font-weight="700" fill="#6b21a8" text-anchor="middle">emprestimo 2</text>
    
    <!-- Right side - Exemplares (N) -->
    <g transform="translate(950, 620)">
      <!-- Physical copy icon 7 -->
      <rect x="0" y="0" width="55" height="75" rx="3" fill="#f59e0b"/>
      <rect x="6" y="6" width="43" height="63" fill="#fef3c7"/>
      <circle cx="27.5" cy="37.5" r="15" fill="#f59e0b" opacity="0.3"/>
      <text x="27.5" y="44" font-family="Arial, sans-serif" font-size="18" font-weight="bold" fill="#92400e" text-anchor="middle">7</text>
    </g>
    <text x="977.5" y="710" font-family="Arial, sans-serif" font-size="18" font-weight="700" fill="#92400e" text-anchor="middle">exemplar 7</text>
    
    <g transform="translate(950, 730)">
      <!-- Physical copy icon 2 -->
      <rect x="0" y="0" width="55" height="75" rx="3" fill="#f59e0b"/>
      <rect x="6" y="6" width="43" height="63" fill="#fef3c7"/>
      <circle cx="27.5" cy="37.5" r="15" fill="#f59e0b" opacity="0.3"/>
      <text x="27.5" y="44" font-family="Arial, sans-serif" font-size="18" font-weight="bold" fill="#92400e" text-anchor="middle">2</text>
    </g>
    <text x="977.5" y="820" font-family="Arial, sans-serif" font-size="18" font-weight="700" fill="#92400e" text-anchor="middle">exemplar 2</text>
    
    <g transform="translate(950, 840)">
      <!-- Physical copy icon 9 -->
      <rect x="0" y="0" width="55" height="75" rx="3" fill="#f59e0b"/>
      <rect x="6" y="6" width="43" height="63" fill="#fef3c7"/>
      <circle cx="27.5" cy="37.5" r="15" fill="#f59e0b" opacity="0.3"/>
      <text x="27.5" y="44" font-family="Arial, sans-serif" font-size="18" font-weight="bold" fill="#92400e" text-anchor="middle">9</text>
    </g>
    <text x="977.5" y="930" font-family="Arial, sans-serif" font-size="18" font-weight="700" fill="#92400e" text-anchor="middle">exemplar 9</text>
    
    <!-- Connections Aluno -> Emprestimo -->
    <path d="M 230 705 L 500 695" stroke="#8b5cf6" stroke-width="4" fill="none"/>
    <path d="M 230 855 L 500 865" stroke="#8b5cf6" stroke-width="4" fill="none"/>
    
    <!-- Connections Emprestimo -> Exemplar -->
    <path d="M 590 675 L 950 655" stroke="#f59e0b" stroke-width="4" fill="none"/>
    <path d="M 590 700 L 950 767" stroke="#f59e0b" stroke-width="4" fill="none"/>
    <path d="M 590 880 L 950 880" stroke="#f59e0b" stroke-width="4" fill="none"/>
    
    <!-- Cardinality labels -->
    <text x="360" y="675" font-family="Arial, sans-serif" font-size="20" font-weight="bold" fill="#7c3aed" text-anchor="middle">M</text>
    <text x="770" y="640" font-family="Arial, sans-serif" font-size="20" font-weight="bold" fill="#d97706" text-anchor="middle">N</text>
  </g>
  
  <!-- Legend -->
  <text x="700" y="985" font-family="Arial, sans-serif" font-size="13" fill="#64748b" text-anchor="middle" font-style="italic">
    Figura 2.3: Cardinalidade no Domínio Biblioteca
  </text>
</svg>